<?xml version="1.0" standalone="no"?>
<!DOCTYPE svg PUBLIC "-//W3C//DTD SVG 20010904//EN"
 "http://www.w3.org/TR/2001/REC-SVG-20010904/DTD/svg10.dtd">
<svg version="1.0" xmlns="http://www.w3.org/2000/svg"
 width="300.000000pt" height="258.000000pt" viewBox="0 0 300.000000 258.000000"
 preserveAspectRatio="xMidYMid meet">
<metadata>
Created by potrace 1.10, written by Peter Selinger 2001-2011
</metadata>
<g transform="translate(0.000000,258.000000) scale(0.100000,-0.100000)"
fill="#000000" stroke="none">
<path d="M2975 1309 c0 -836 -3 -1273 -10 -1277 -12 -8 -1624 -7 -1632 1 -3 3
9 66 26 139 41 170 58 244 67 288 3 19 10 45 15 57 l8 22 53 -29 c28 -16 56
-27 60 -24 4 3 11 -13 14 -35 7 -47 26 -77 41 -68 6 4 16 30 23 58 7 30 19 53
29 56 34 11 61 27 89 54 l29 29 45 -98 c25 -53 61 -133 79 -177 18 -44 41 -89
51 -100 17 -17 16 -11 -6 48 -44 116 -126 303 -163 365 -1 2 -21 -16 -45 -41
-24 -25 -56 -48 -73 -52 -17 -4 -36 -8 -42 -11 -9 -2 -13 -24 -13 -64 0 -33
-4 -60 -10 -60 -6 0 -10 26 -10 59 l0 59 -44 11 c-100 25 -155 111 -148 230 2
19 5 22 14 13 9 -9 15 -5 24 18 20 46 69 72 130 67 31 -3 60 1 75 9 36 20 83
17 104 -6 10 -11 21 -18 23 -15 3 3 -3 12 -14 21 -18 15 -17 15 11 9 17 -3 41
-13 53 -22 l24 -15 -21 -19 c-12 -11 -21 -27 -21 -35 0 -8 -4 -12 -10 -9 -6 4
-7 -1 -3 -11 4 -10 2 -15 -3 -11 -6 3 -15 -13 -22 -36 -14 -51 -61 -111 -110
-138 -26 -14 -30 -18 -12 -13 37 9 88 51 106 86 10 20 19 27 23 19 7 -11 22
25 39 99 5 24 17 39 35 48 35 17 27 28 -37 58 -58 27 -102 30 -150 10 -20 -8
-51 -12 -78 -9 -61 7 -113 -12 -146 -53 -15 -19 -32 -34 -38 -34 -6 0 -32 11
-57 24 l-47 23 -55 -108 c-60 -117 -65 -131 -36 -105 18 17 18 16 5 -46 -39
-172 -41 -208 -15 -208 12 0 41 50 71 122 13 31 28 54 33 51 6 -3 7 -1 3 5 -7
11 19 72 30 72 3 0 3 -24 -1 -52 -8 -58 -13 -83 -15 -83 -1 0 -3 -29 -6 -65
-2 -36 -9 -101 -14 -145 -6 -44 -13 -114 -16 -155 -4 -41 -9 -77 -11 -80 -3
-3 -288 -5 -634 -6 -345 0 -632 -3 -635 -7 -4 -4 666 -7 1489 -7 l1497 0 0
1285 c0 707 -3 1285 -7 1285 -5 0 -8 -572 -8 -1271z m-1600 -534 c6 0 11 -29
13 -63 2 -46 8 -70 22 -85 11 -11 18 -29 15 -41 -2 -12 -22 -100 -44 -196 -22
-96 -47 -218 -57 -270 -23 -124 -31 -88 -10 49 8 58 25 189 36 291 11 102 23
200 26 218 9 49 -10 39 -49 -25 -30 -49 -98 -199 -121 -267 -4 -10 -9 -17 -11
-14 -3 3 10 62 29 132 20 70 40 155 46 189 6 34 16 74 23 89 11 26 12 26 42
10 16 -9 35 -16 40 -17z m412 -87 c-3 -8 -6 -5 -6 6 -1 11 2 17 5 13 3 -3 4
-12 1 -19z"/>
<path d="M1371 754 c0 -11 3 -14 6 -6 3 7 2 16 -1 19 -3 4 -6 -2 -5 -13z"/>
<path d="M1281 664 c0 -11 3 -14 6 -6 3 7 2 16 -1 19 -3 4 -6 -2 -5 -13z"/>
<path d="M1271 623 c-1 -6 -4 -20 -7 -30 -5 -17 -5 -17 6 0 6 10 9 23 6 30 -3
9 -5 9 -5 0z"/>
<path d="M1388 605 c-3 -6 -8 -37 -11 -70 l-6 -60 15 59 c14 56 15 92 2 71z"/>
<path d="M1530 2546 c-9 -24 -34 -289 -31 -334 0 -13 -3 -31 -9 -40 -6 -12 -9
-13 -10 -4 0 8 -6 28 -14 45 -8 18 -35 86 -61 152 -25 66 -53 128 -62 138 -15
16 -18 16 -32 3 -12 -13 -13 -30 -3 -123 14 -127 15 -173 4 -173 -4 0 -23 37
-41 83 -33 81 -72 142 -56 87 4 -14 22 -64 40 -112 17 -48 30 -90 27 -93 -17
-17 -7 -31 19 -27 16 2 29 8 29 12 0 4 -12 5 -27 2 -25 -5 -27 -4 -14 11 16
20 42 22 60 5 10 -11 11 -5 7 27 -3 22 -10 81 -16 130 -6 50 -13 108 -16 130
-4 22 -4 38 -1 35 3 -3 33 -77 67 -165 62 -160 108 -260 115 -253 7 7 35 334
35 408 0 40 4 70 10 70 6 0 10 -38 10 -92 0 -162 18 -408 30 -408 20 0 67 51
117 127 54 81 57 84 92 83 61 -3 68 0 41 15 -38 21 -87 19 -100 -5 -6 -11 -27
-28 -48 -39 -20 -10 -46 -28 -56 -40 -26 -29 -13 -26 20 4 15 14 31 25 36 25
12 0 -19 -53 -58 -98 l-31 -36 -1 45 c-2 32 6 62 29 107 37 76 84 112 146 112
41 0 60 -15 28 -22 -8 -2 5 -11 28 -20 l42 -18 -25 22 c-18 15 -20 19 -7 15
10 -4 23 -7 28 -7 15 0 69 -82 69 -104 -1 -28 -81 -108 -98 -97 -10 6 -11 18
-3 50 5 23 12 45 15 49 4 3 22 -2 42 -11 48 -23 33 -2 -17 23 l-39 21 -9 -23
c-5 -13 -16 -43 -23 -67 -12 -40 -16 -44 -49 -46 l-36 -2 28 41 c15 23 30 52
34 66 3 14 -8 1 -26 -28 -23 -39 -34 -50 -40 -40 -6 9 -9 7 -9 -9 0 -29 -10
-54 -19 -48 -5 2 -23 -11 -41 -30 -19 -19 -40 -35 -47 -35 -7 0 -13 -10 -13
-21 0 -19 6 -16 46 20 71 66 135 85 200 61 24 -9 31 -7 56 17 16 15 48 52 70
81 22 29 43 51 45 48 2 -2 -9 -26 -25 -52 -16 -27 -37 -70 -47 -96 l-18 -48
-66 0 c-73 0 -174 -21 -224 -46 -42 -21 -67 -53 -67 -86 0 -25 -1 -26 -30 -15
-23 9 -33 8 -42 -1 -9 -9 -18 -6 -40 15 -27 25 -36 28 -119 29 -89 2 -92 3
-109 31 -17 28 -17 30 2 53 l19 23 29 -34 c31 -36 37 -31 19 19 -6 19 -16 29
-23 26 -8 -3 -21 2 -29 11 -17 16 -14 39 9 65 11 13 9 34 -16 130 -34 127 -52
161 -48 88 2 -25 6 -44 10 -42 4 3 7 -4 7 -13 -1 -10 7 -48 17 -86 24 -91 9
-106 -39 -40 -49 67 -113 127 -126 119 -20 -12 -12 -43 29 -115 22 -39 40 -73
40 -75 0 -3 16 -33 36 -66 20 -34 34 -63 32 -65 -4 -4 -46 33 -170 148 -48 45
-96 85 -105 91 -35 19 76 -101 175 -189 70 -63 95 -91 84 -94 -10 -2 -51 -14
-92 -27 l-74 -23 -104 109 c-100 106 -162 161 -162 143 0 -5 24 -34 53 -64 29
-29 58 -62 65 -71 12 -14 10 -16 -10 -12 -20 5 -18 1 12 -26 19 -17 54 -43 77
-58 24 -15 43 -30 43 -34 0 -11 -38 -10 -44 1 -13 21 -126 112 -126 101 0 -6
22 -35 50 -64 l50 -53 -24 -12 c-29 -16 -39 -13 -179 51 -59 27 -113 47 -120
45 -12 -5 231 -127 252 -127 6 0 11 -5 11 -12 0 -6 9 -2 20 9 19 21 58 39 66
31 7 -8 -78 -58 -87 -52 -6 3 -16 1 -23 -5 -10 -8 -29 -1 -77 31 -132 85 -191
119 -187 106 2 -7 36 -34 74 -60 38 -26 74 -51 79 -55 6 -4 22 -14 38 -22 29
-15 36 -48 13 -57 -8 -3 -82 2 -165 10 -170 18 -245 20 -237 7 6 -9 105 -22
311 -42 60 -5 110 -11 110 -12 1 -1 6 -20 12 -42 5 -22 14 -48 18 -59 7 -17 6
-17 -21 -3 -35 18 -355 122 -404 131 l-35 7 25 -20 c14 -11 30 -21 37 -21 12
0 159 -48 300 -98 45 -16 85 -27 88 -24 3 3 5 0 5 -6 0 -7 -18 -13 -45 -13
-25 -1 -48 -2 -52 -3 -5 -1 -71 -6 -148 -10 -163 -9 -176 -11 -204 -26 -39
-20 -16 -30 129 -54 19 -4 46 -8 60 -11 14 -3 51 -8 83 -11 32 -4 56 -11 54
-17 -2 -6 -54 -24 -115 -42 -62 -18 -116 -33 -120 -35 -53 -20 -57 -24 -37
-27 16 -3 241 56 399 104 15 4 18 2 13 -11 -6 -14 -3 -15 14 -5 11 6 19 13 16
15 -9 10 -410 74 -459 74 -28 0 -49 2 -47 4 4 4 96 10 329 22 69 4 132 8 140
9 10 1 27 -28 52 -88 43 -103 76 -150 119 -172 47 -25 38 7 -20 65 -34 34 -58
71 -81 127 -18 43 -38 81 -44 85 -6 4 -12 29 -12 55 -1 26 -6 68 -12 93 -8 38
-10 41 -11 15 -1 -26 -3 -27 -12 -12 -15 26 -7 58 20 76 24 15 24 15 11 -8
-10 -19 -2 -15 36 17 103 86 279 151 419 155 68 2 135 -15 135 -34 0 -5 -14
-2 -32 7 -25 13 -49 15 -112 11 -105 -7 -188 -25 -179 -40 4 -6 0 -8 -10 -4
-19 7 -99 -22 -91 -34 7 -11 -34 -31 -48 -23 -7 4 -8 3 -4 -4 4 -7 2 -13 -3
-13 -6 -1 -15 -2 -21 -3 -16 -2 -71 -58 -80 -82 -16 -42 51 -254 107 -339 l27
-40 13 34 c8 18 11 41 7 50 -5 12 -9 6 -14 -19 l-6 -35 -32 62 c-35 68 -53
116 -82 211 l-19 62 38 0 c20 0 43 -6 50 -12 10 -11 11 -10 6 3 -9 24 -57 48
-62 32 -3 -7 -10 -13 -16 -13 -7 1 6 17 28 36 22 19 45 32 53 29 8 -3 34 -10
57 -16 l43 -11 -24 -35 c-29 -42 -30 -67 -6 -85 16 -12 16 -15 1 -46 -13 -25
-19 -29 -22 -18 -4 14 -5 14 -3 1 2 -28 20 -19 41 19 20 37 17 46 -19 59 -5 2
13 45 39 96 27 52 48 99 48 106 0 14 85 38 167 49 41 5 43 5 19 -7 -15 -7 -24
-18 -22 -27 3 -11 0 -10 -10 3 -11 13 -17 15 -24 5 -24 -31 -93 -176 -90 -189
2 -8 2 -11 0 -6 -6 9 -23 -1 -23 -13 0 -4 11 -11 25 -14 38 -10 31 -29 -8 -22
l-32 6 -48 -95 c-37 -75 -43 -94 -28 -85 25 13 64 13 56 0 -3 -5 0 -10 8 -10
7 0 27 25 43 56 l29 56 7 -54 c5 -32 3 -64 -4 -81 -10 -26 -12 -27 -29 -11
-10 9 -23 13 -28 9 -6 -3 -11 -3 -11 2 0 4 -20 9 -45 9 l-44 1 14 -27 c16 -30
31 -44 60 -53 19 -7 19 -6 2 7 -10 7 -15 20 -11 29 3 10 -1 17 -13 20 -10 2
-4 3 12 1 35 -3 75 -14 75 -21 0 -2 -5 -13 -10 -24 -13 -24 -12 -24 51 1 50
20 78 19 49 -1 -12 -9 -12 -10 3 -5 10 3 26 6 35 6 11 0 6 7 -13 19 -17 10
-39 30 -48 44 -23 35 -46 128 -42 164 2 15 6 49 10 75 8 63 55 154 104 202 35
35 43 38 75 32 19 -4 42 -14 50 -22 24 -23 56 -139 71 -254 l14 -105 -3 82
c-1 45 1 84 5 85 8 3 -18 108 -45 186 -9 25 -11 42 -5 42 13 0 37 -58 50 -123
14 -65 12 -238 -2 -292 -12 -44 -53 -105 -71 -105 -7 0 2 15 19 33 18 17 34
46 38 62 5 26 4 24 -13 -10 -24 -50 -44 -68 -112 -99 -67 -31 -144 -51 -229
-61 -59 -7 -64 -6 -57 11 7 17 6 17 -14 -1 -11 -10 -20 -31 -20 -47 0 -28 1
-28 59 -28 32 0 111 13 176 30 171 43 233 85 258 177 11 41 27 50 27 14 0 -9
17 -34 38 -54 33 -32 49 -39 115 -51 42 -7 78 -9 79 -5 2 5 18 10 36 12 69 8
38 14 -46 9 -71 -4 -95 -1 -123 13 -75 38 -109 94 -110 182 0 61 -22 199 -32
210 -10 10 13 33 33 33 14 0 18 -13 24 -72 18 -196 83 -307 200 -339 56 -15
295 -5 363 15 53 17 113 71 113 103 0 11 6 14 23 8 76 -24 176 -47 272 -61 61
-9 145 -22 188 -28 65 -10 75 -10 64 1 -12 12 -132 38 -292 63 -115 18 -168
32 -154 41 8 5 24 9 35 9 27 0 94 27 115 47 10 8 60 25 112 38 52 13 105 29
117 35 21 11 21 12 4 31 -16 18 -27 19 -123 14 -222 -12 -241 -13 -241 -6 0 3
42 30 93 60 120 71 157 99 157 117 0 28 -30 26 -137 -9 -59 -19 -124 -38 -143
-42 l-35 -7 30 27 c17 14 62 52 100 83 89 71 127 110 120 122 -11 18 -30 11
-140 -55 -61 -35 -112 -65 -115 -65 -3 0 -11 13 -18 29 -13 29 -11 32 79 138
102 120 118 148 101 165 -13 13 -38 -3 -153 -97 -154 -125 -158 -128 -201
-122 -22 3 -42 7 -44 10 -3 3 16 44 41 91 26 47 45 93 43 103 -7 37 -36 24
-88 -42 -29 -36 -54 -64 -56 -62 -2 2 6 22 18 44 20 37 21 42 6 57 -15 14 -18
14 -39 -3 -22 -18 -23 -18 -39 13 -9 17 -24 44 -32 59 -15 27 -14 34 10 105
14 43 29 80 34 83 10 7 -7 59 -20 59 -5 0 -17 -9 -27 -20 -19 -21 -26 -32 -59
-91 -26 -48 -56 -79 -77 -79 -56 0 -126 -58 -150 -125 -7 -19 -16 -35 -19 -35
-4 0 -10 73 -14 162 -6 150 -14 188 -37 188 -5 0 -14 -11 -19 -24z m370 -96
c-37 -101 -49 -114 -74 -90 -5 5 0 21 11 37 11 15 37 59 58 96 20 37 39 67 41
65 1 -2 -15 -51 -36 -108z m-757 -269 c72 -90 74 -94 64 -127 -6 -19 -11 -33
-12 -31 -5 6 -140 253 -144 262 -6 16 11 -3 92 -104z m929 -21 c-55 -106 -58
-110 -91 -110 l-34 0 36 43 c20 23 58 72 84 109 26 37 51 67 55 68 4 0 -19
-49 -50 -110z m342 57 c-31 -32 -166 -193 -180 -215 -4 -6 -74 21 -74 28 1 3
25 22 54 43 29 20 93 73 142 116 95 84 123 97 58 28z m126 -161 c0 -3 -35 -29
-77 -60 -114 -80 -193 -154 -193 -179 0 -15 -3 -18 -8 -9 -5 7 -13 -32 -21
-92 -13 -120 -32 -189 -57 -217 -28 -31 -38 -22 -11 11 29 33 43 92 57 229 7
63 7 98 0 105 -7 7 -10 -11 -10 -54 0 -81 -15 -182 -36 -238 -21 -55 -72 -83
-167 -90 -38 -3 -64 -8 -59 -11 6 -3 -27 -7 -72 -8 -58 -1 -74 1 -56 8 19 6
13 7 -22 3 -57 -6 -108 13 -135 52 -21 31 -53 117 -53 143 0 9 11 -15 24 -52
27 -80 66 -124 116 -132 l35 -6 -40 15 c-48 18 -75 50 -98 114 -33 91 -49 292
-27 333 24 45 123 69 284 70 61 0 119 -3 129 -7 16 -6 14 -9 -12 -35 l-30 -28
18 -45 c13 -36 20 -43 29 -34 7 7 12 26 11 43 0 25 -2 27 -9 10 -7 -19 -8 -19
-15 -2 -9 22 -9 23 40 31 l40 7 -24 -20 c-24 -18 -24 -21 -11 -62 9 -30 15
-38 18 -25 2 10 -1 23 -7 29 -8 8 -1 21 26 49 l37 38 -29 2 c-17 0 -43 0 -60
-1 l-30 -2 21 21 21 21 59 -20 c32 -12 65 -28 74 -37 13 -14 9 -20 -44 -69
-38 -34 -56 -58 -51 -66 6 -8 4 -10 -4 -5 -7 5 -21 0 -32 -10 -21 -19 -27 -6
-6 15 10 11 9 13 -3 9 -8 -3 -16 -13 -16 -24 -1 -10 -2 -21 -3 -24 -1 -3 -3
-49 -4 -102 -1 -54 -5 -98 -9 -98 -5 0 -8 -11 -8 -24 0 -13 -7 -29 -15 -36 -9
-7 -13 -15 -10 -18 3 -3 32 20 64 51 33 32 67 57 76 57 9 0 13 4 10 10 -3 5 3
20 14 32 12 12 18 24 16 27 -3 3 -35 -24 -71 -60 -55 -53 -63 -59 -50 -31 9
18 12 32 6 32 -26 0 -4 33 66 99 42 40 74 75 70 78 -3 3 -14 -1 -24 -11 -11
-9 -26 -14 -35 -11 -8 4 -29 -1 -46 -10 -27 -14 -31 -14 -31 0 0 8 4 15 8 15
5 0 32 22 60 49 29 27 61 52 72 56 15 5 20 15 20 38 0 18 -4 37 -8 44 -11 18
-122 65 -138 59 -7 -3 -16 -1 -19 4 -3 4 -43 11 -90 15 -84 7 -188 -3 -269
-26 -50 -14 -96 -59 -97 -96 -2 -26 -2 -26 -9 7 -5 26 -8 10 -10 -60 -2 -88
-3 -91 -12 -50 -13 63 -5 147 16 168 16 16 17 16 10 -3 -7 -17 -3 -16 24 7 58
49 128 63 363 73 104 4 128 2 145 -10 18 -15 17 -16 -16 -10 -27 5 -22 0 25
-19 33 -14 68 -23 78 -20 43 14 60 -38 31 -95 -9 -18 -13 -35 -10 -38 9 -9 34
16 38 37 2 12 50 51 123 99 113 75 135 87 135 77z m-996 -178 c18 -25 21 -53
6 -43 -5 3 -10 1 -10 -5 0 -7 -7 -10 -15 -6 -8 3 -15 1 -15 -5 0 -22 -18 2
-24 33 -10 49 30 67 58 26z m1046 1 c-8 -5 -76 -45 -150 -89 -200 -119 -201
-113 30 -106 107 3 207 9 223 12 17 4 27 2 27 -5 0 -6 -9 -11 -21 -11 -11 0
-84 -16 -161 -36 -77 -19 -147 -33 -155 -30 -23 9 -14 14 58 31 58 13 59 14
14 9 -52 -6 -153 -39 -170 -56 -7 -7 4 -8 30 -5 22 4 72 8 110 11 l70 6 -110
-30 c-60 -16 -115 -30 -121 -30 -7 0 -8 20 -3 63 5 34 11 88 14 120 l6 57 46
12 c25 6 93 28 152 48 108 39 138 46 111 29z m-1516 -64 c-9 -14 -21 -22 -26
-19 -6 4 -8 -2 -3 -15 8 -27 4 -27 -25 4 l-23 25 34 14 c52 23 62 21 43 -9z
m544 -120 c0 -26 -1 -24 -9 10 -4 22 -8 58 -7 80 1 39 1 39 8 -10 5 -27 8 -63
8 -80z m-628 95 c0 -5 -8 -10 -17 -10 -15 0 -16 2 -3 10 19 12 20 12 20 0z
m1160 -54 c0 -12 -79 -65 -85 -57 -3 6 11 21 32 35 37 24 53 31 53 22z m-988
-53 c-3 -16 -7 -22 -10 -15 -4 13 4 42 11 42 2 0 2 -12 -1 -27z m-12 -93 c0
-5 -2 -10 -4 -10 -3 0 -8 5 -11 10 -3 6 -1 10 4 10 6 0 11 -4 11 -10z m-19
-16 c11 -14 9 -23 -11 -63 -20 -37 -30 -46 -52 -47 -16 -1 -28 1 -28 3 0 10
66 123 71 123 4 0 13 -7 20 -16z m926 -6 c-3 -8 -6 -5 -6 6 -1 11 2 17 5 13 3
-3 4 -12 1 -19z m143 -88 c0 -22 -81 -50 -157 -54 -55 -3 -65 -2 -33 3 32 5
39 9 25 13 -11 3 -5 4 13 2 21 -2 30 1 26 8 -5 7 2 9 19 6 15 -3 24 -2 22 2
-7 11 20 19 43 13 11 -2 23 0 26 6 9 14 16 14 16 1z m-377 -57 c-7 -2 -21 -2
-30 0 -10 3 -4 5 12 5 17 0 24 -2 18 -5z m-625 -25 c17 -17 15 -25 -10 -31
-30 -8 -40 1 -25 23 14 23 19 24 35 8z m262 -14 c-8 -8 -23 -20 -34 -25 -13
-7 -9 -1 9 15 34 29 43 33 25 10z m-64 -19 c-11 -8 -25 -15 -30 -15 -6 1 0 7
14 15 32 19 40 18 16 0z m-1 -25 c-8 -14 -124 -48 -165 -49 -19 0 -62 -5 -95
-9 -33 -5 -69 -6 -79 -2 -18 6 36 14 184 25 25 2 68 12 95 23 57 24 69 26 60
12z"/>
<path d="M2005 2084 c-9 -15 -12 -23 -6 -20 11 7 35 46 28 46 -3 0 -12 -12
-22 -26z"/>
<path d="M2255 2075 c-22 -19 -35 -35 -29 -35 5 0 25 16 44 35 43 44 37 44
-15 0z"/>
<path d="M2048 2023 c6 -2 18 -2 25 0 6 3 1 5 -13 5 -14 0 -19 -2 -12 -5z"/>
<path d="M1986 1955 c4 -8 10 -12 15 -9 11 6 2 24 -11 24 -5 0 -7 -7 -4 -15z"/>
<path d="M2231 1950 c14 -31 19 -36 19 -24 0 6 -7 19 -16 30 -14 18 -14 18 -3
-6z"/>
<path d="M1843 1953 c-24 -2 -43 -8 -43 -12 0 -4 15 -5 33 -3 l32 5 -24 -27
c-40 -43 -18 -39 24 4 22 22 35 39 30 38 -6 -1 -29 -3 -52 -5z"/>
<path d="M1748 1933 c7 -3 16 -2 19 1 4 3 -2 6 -13 5 -11 0 -14 -3 -6 -6z"/>
<path d="M2166 1893 c-6 -14 -5 -15 5 -6 7 7 10 15 7 18 -3 3 -9 -2 -12 -12z"/>
<path d="M1934 1848 c-52 -55 -41 -51 21 8 21 19 35 37 33 39 -2 3 -26 -19
-54 -47z"/>
<path d="M1663 1855 c-19 -19 -31 -39 -28 -45 5 -8 14 -4 26 9 23 25 54 27 63
5 3 -8 -3 -33 -15 -56 -17 -33 -24 -39 -45 -35 -17 3 -24 0 -24 -11 0 -9 7
-13 20 -9 17 4 20 0 20 -23 0 -16 7 -36 17 -45 13 -13 13 -19 4 -25 -9 -5 -10
-10 -2 -14 6 -4 11 -2 11 3 0 6 11 11 23 11 28 0 57 28 58 56 0 18 1 18 9 -1
7 -16 9 -12 9 20 l1 39 -49 -48 c-30 -30 -51 -44 -55 -37 -15 24 -9 73 11 93
l20 20 22 -23 c15 -16 21 -19 21 -8 0 21 -20 39 -44 39 -17 0 -12 8 24 46 43
44 44 46 26 60 -36 26 -84 18 -123 -21z m97 0 c0 -21 -29 -26 -39 -6 -6 10 -8
21 -5 24 9 9 44 -5 44 -18z"/>
<path d="M1817 1835 c8 -23 33 -51 33 -37 0 5 -9 20 -20 33 -17 21 -19 21 -13
4z"/>
<path d="M1993 1826 c5 -13 -2 -27 -29 -53 -20 -19 -34 -36 -32 -38 2 -3 23
15 47 39 39 40 41 44 25 57 -16 12 -17 12 -11 -5z"/>
<path d="M1769 1766 c14 -14 27 -26 29 -26 10 0 -26 44 -39 48 -8 3 -3 -7 10
-22z"/>
<path d="M1836 1758 c-20 -28 -20 -38 -2 -38 30 0 24 -31 -15 -80 -22 -27 -43
-50 -47 -50 -4 0 -20 -17 -36 -38 l-30 -37 45 40 c130 118 119 103 119 161 0
60 -12 74 -34 42z"/>
<path d="M2015 1710 c-3 -5 -1 -10 4 -10 6 0 11 5 11 10 0 6 -2 10 -4 10 -3 0
-8 -4 -11 -10z"/>
<path d="M1842 1615 c-28 -52 -51 -78 -86 -95 -22 -11 -25 -16 -12 -18 31 -6
80 32 104 80 29 58 23 88 -6 33z"/>
<path d="M2011 1574 c0 -11 3 -14 6 -6 3 7 2 16 -1 19 -3 4 -6 -2 -5 -13z"/>
<path d="M2365 1785 c-16 -8 -23 -14 -15 -14 8 0 26 6 40 14 32 18 15 18 -25
0z"/>
<path d="M2308 1763 c7 -3 16 -2 19 1 4 3 -2 6 -13 5 -11 0 -14 -3 -6 -6z"/>
<path d="M1371 2305 c-1 -11 2 -45 6 -75 6 -52 7 -53 14 -22 4 19 1 50 -7 75
-7 23 -13 33 -13 22z"/>
<path d="M897 2169 c10 -17 25 -38 33 -47 21 -23 52 -72 46 -72 -3 0 -20 8
-38 18 -18 10 -64 36 -101 56 -37 21 -71 36 -74 32 -7 -7 -10 -5 47 -43 70
-46 241 -135 247 -129 4 3 15 -8 25 -25 11 -17 21 -29 24 -26 8 8 -38 67 -47
61 -4 -2 -27 24 -50 58 -56 83 -109 148 -121 148 -5 0 -1 -14 9 -31z"/>
<path d="M1352 2163 c-9 -3 -5 -13 13 -31 74 -77 96 -129 37 -86 -43 32 -56
39 -48 26 5 -8 2 -10 -8 -6 -9 3 -14 10 -11 14 6 10 -44 20 -62 13 -15 -6 -3
-13 108 -69 55 -27 67 -38 72 -62 5 -25 10 -29 31 -25 18 4 28 15 35 37 18 57
22 94 13 100 -6 3 -13 -16 -17 -42 -9 -58 -21 -82 -42 -82 -12 0 -14 7 -10 28
6 30 -24 108 -64 163 -21 30 -24 31 -47 22z"/>
<path d="M1885 2080 c3 -5 11 -10 16 -10 6 0 7 5 4 10 -3 6 -11 10 -16 10 -6
0 -7 -4 -4 -10z"/>
<path d="M1310 2008 c0 -16 5 -28 10 -28 13 0 13 20 0 40 -8 12 -10 9 -10 -12z"/>
<path d="M1240 2003 c0 -5 5 -15 10 -23 7 -12 9 -10 7 8 -1 19 -17 33 -17 15z"/>
<path d="M947 1975 c31 -44 73 -82 72 -64 0 8 -22 32 -47 54 -41 36 -44 37
-25 10z"/>
<path d="M1410 1970 c0 -5 5 -10 11 -10 5 0 7 5 4 10 -3 6 -8 10 -11 10 -2 0
-4 -4 -4 -10z"/>
<path d="M1042 1943 c6 -7 17 -13 24 -13 7 0 11 6 8 13 -2 7 -13 13 -24 13
-14 0 -16 -3 -8 -13z"/>
<path d="M1287 1813 c-15 -32 -15 -35 -1 -18 24 30 36 55 26 55 -4 0 -16 -17
-25 -37z"/>
<path d="M1371 1793 c-10 -26 -10 -27 4 -9 8 11 15 23 15 28 0 15 -7 8 -19
-19z"/>
<path d="M1532 1775 c0 -16 2 -22 5 -12 2 9 2 23 0 30 -3 6 -5 -1 -5 -18z"/>
<path d="M1336 1733 c-6 -14 -5 -15 5 -6 7 7 10 15 7 18 -3 3 -9 -2 -12 -12z"/>
<path d="M938 1719 c6 -9 10 -18 7 -21 -3 -3 1 -11 9 -17 13 -11 13 -18 1 -52
-8 -21 -12 -39 -10 -39 3 0 -2 -18 -11 -40 -23 -58 -10 -73 15 -17 12 27 19
53 16 57 -3 5 0 12 5 15 6 4 10 17 8 28 -1 12 1 27 4 33 4 6 -7 24 -24 40 -18
16 -27 22 -20 13z"/>
<path d="M1373 1710 c-75 -30 -85 -202 -14 -240 31 -16 66 -12 86 10 19 21 13
42 -7 22 -7 -7 -18 -12 -25 -12 -11 0 -11 5 -2 23 8 17 5 15 -13 -6 -23 -29
-23 -29 -42 -8 -17 19 -17 21 14 80 34 63 45 74 46 44 1 -10 4 -25 7 -33 4 -8
3 -21 -2 -29 -8 -12 -12 -13 -25 -1 -18 14 -32 8 -21 -9 10 -17 40 -13 58 7
19 21 23 47 6 36 -6 -4 -9 1 -7 13 2 11 -3 27 -10 36 -11 12 -11 20 -2 38 10
17 9 23 -1 30 -17 10 -18 10 -46 -1z m20 -36 c10 -10 -22 -64 -37 -64 -21 0
-26 25 -10 49 15 21 35 27 47 15z m-40 -80 c8 -8 -3 -34 -14 -34 -5 0 -9 9 -9
20 0 19 11 26 23 14z"/>
<path d="M620 1677 c0 -6 133 -47 152 -47 24 1 -16 19 -68 30 -27 6 -57 13
-66 16 -10 3 -18 3 -18 1z"/>
<path d="M1068 1653 c7 -3 16 -2 19 1 4 3 -2 6 -13 5 -11 0 -14 -3 -6 -6z"/>
<path d="M1057 1629 c7 -7 15 -10 18 -7 3 3 -2 9 -12 12 -14 6 -15 5 -6 -5z"/>
<path d="M1220 1510 c0 -5 5 -10 11 -10 5 0 7 5 4 10 -3 6 -8 10 -11 10 -2 0
-4 -4 -4 -10z"/>
<path d="M2270 1490 c0 -5 -8 -10 -17 -11 -15 0 -15 -2 2 -9 11 -5 47 -8 80
-8 59 0 59 0 18 8 -23 5 -51 14 -63 20 -13 7 -20 7 -20 0z"/>
<path d="M958 1453 c6 -2 18 -2 25 0 6 3 1 5 -13 5 -14 0 -19 -2 -12 -5z"/>
<path d="M1640 1431 c5 -11 15 -23 21 -27 6 -3 3 5 -6 20 -20 30 -30 35 -15 7z"/>
<path d="M2243 1442 c-48 -5 -40 -18 11 -17 24 0 42 3 39 8 -2 4 8 7 23 7 24
0 25 -2 13 -17 -12 -15 -12 -16 1 -8 8 6 49 15 90 21 l75 11 -110 0 c-60 -1
-125 -3 -142 -5z"/>
<path d="M2508 1419 c-108 -7 -223 -33 -214 -48 3 -4 60 -15 128 -25 68 -10
130 -21 138 -25 8 -3 -39 -7 -105 -9 -102 -2 -122 0 -132 14 -20 28 -108 14
-141 -22 -15 -15 -18 -21 -7 -12 42 33 124 40 152 13 22 -23 122 -66 253 -111
129 -44 141 -55 34 -29 -66 15 -326 55 -359 55 -17 -1 -16 -4 11 -29 34 -30
225 -141 364 -211 47 -23 88 -48 92 -54 5 -7 8 -7 8 0 0 20 -46 52 -185 128
-77 42 -147 80 -155 86 -8 6 -25 14 -37 19 -11 6 -24 14 -27 20 -6 10 10 9 84
-6 19 -4 42 -8 50 -9 8 -1 44 -7 80 -13 111 -18 145 -21 159 -12 27 17 2 36
-90 71 -52 19 -114 43 -139 55 l-45 20 65 5 c98 8 117 27 52 53 -20 8 -64 18
-96 22 -38 5 -54 11 -44 16 14 8 185 18 323 19 40 0 65 4 60 9 -15 13 -158 18
-277 10z"/>
<path d="M2250 1410 c0 -5 7 -7 15 -4 8 4 15 8 15 10 0 2 -7 4 -15 4 -8 0 -15
-4 -15 -10z"/>
<path d="M2185 1400 c-3 -5 1 -10 9 -10 8 0 18 5 21 10 3 6 -1 10 -9 10 -8 0
-18 -4 -21 -10z"/>
<path d="M1515 1380 c-4 -6 10 -10 35 -10 25 0 39 4 35 10 -3 6 -19 10 -35 10
-16 0 -32 -4 -35 -10z"/>
<path d="M2148 1373 c7 -3 16 -2 19 1 4 3 -2 6 -13 5 -11 0 -14 -3 -6 -6z"/>
<path d="M1975 1355 c13 -10 30 -13 52 -9 34 6 73 -15 73 -39 0 -6 -8 -3 -17
5 -24 21 -63 32 -63 19 0 -6 30 -26 68 -46 61 -32 64 -34 32 -32 -19 2 -45 9
-57 15 -37 21 -63 13 -109 -30 l-45 -43 21 -40 c25 -49 25 -62 0 -75 -14 -8
-25 -7 -40 2 -18 11 -23 10 -36 -7 -8 -11 -12 -25 -10 -31 6 -15 -69 -48 -142
-63 -65 -14 -138 -14 -217 -1 -71 11 -109 45 -120 106 -5 35 -13 43 -69 76
-80 47 -108 54 -130 33 -24 -25 -30 -60 -16 -113 14 -57 64 -154 93 -179 20
-18 20 -18 6 7 -8 14 -17 27 -20 30 -4 3 -18 29 -33 59 -45 94 -44 191 1 191
9 0 44 -17 79 -37 55 -32 64 -41 69 -74 4 -21 20 -53 38 -73 25 -29 43 -38 87
-47 57 -10 177 -13 219 -4 103 20 181 60 181 91 0 10 7 13 24 8 30 -7 63 9 71
36 4 11 -1 41 -11 67 l-18 46 34 29 c40 33 59 35 91 9 21 -17 24 -27 23 -88
-1 -76 -27 -151 -78 -218 -28 -37 -28 -38 -4 -17 14 13 41 51 60 85 31 57 33
69 33 153 0 90 0 91 22 83 14 -5 25 -3 33 6 9 11 6 17 -14 30 -14 10 -26 24
-26 32 0 8 -11 25 -26 38 -21 20 -30 22 -57 14 -20 -5 -35 -5 -41 1 -6 6 -15
10 -20 10 -6 0 -2 -7 9 -15z"/>
<path d="M1825 1350 c-3 -5 1 -10 10 -10 9 0 13 5 10 10 -3 6 -8 10 -10 10 -2
0 -7 -4 -10 -10z"/>
<path d="M1480 1318 c-15 -21 -17 -28 -6 -19 16 13 41 51 33 51 -2 0 -14 -15
-27 -32z"/>
<path d="M742 1321 c37 -4 74 -13 83 -21 8 -7 18 -11 20 -8 16 15 -35 33 -99
34 l-71 2 67 -7z"/>
<path d="M1850 1295 c-11 -13 -8 -21 20 -50 l34 -35 33 32 c18 17 31 34 28 36
-2 2 -15 -9 -29 -24 l-24 -29 -26 24 c-28 27 -33 46 -13 54 7 4 8 6 1 6 -6 1
-17 -6 -24 -14z"/>
<path d="M1911 1306 c2 -2 27 -6 54 -9 34 -4 42 -3 25 3 -25 8 -87 13 -79 6z"/>
<path d="M1659 1289 c-6 -3 9 -9 33 -12 23 -3 50 -8 58 -10 23 -5 120 -68 120
-77 0 -5 -18 -24 -40 -43 -39 -33 -70 -44 -70 -23 0 6 -11 24 -25 40 -32 37
-32 25 0 -30 34 -58 15 -64 -35 -10 -41 43 -89 71 -110 64 -6 -2 6 -12 27 -23
43 -21 93 -64 93 -78 0 -5 -7 -4 -15 3 -10 9 -15 9 -15 1 0 -6 -9 -11 -21 -11
-16 0 -20 4 -15 18 5 15 4 14 -9 -2 -12 -16 -23 -18 -71 -13 -31 3 -58 7 -59
9 -2 2 3 37 11 78 9 49 10 78 4 84 -7 7 -10 5 -11 -4 0 -8 -6 -51 -13 -95 -8
-44 -12 -82 -9 -85 3 -3 59 -5 126 -5 113 0 126 2 172 27 28 14 65 41 82 60
l33 34 -48 36 c-26 19 -59 43 -73 52 -28 17 -102 27 -120 15z"/>
<path d="M422 1281 c-18 -11 43 -21 136 -21 69 0 72 -1 57 -17 -16 -16 -16
-18 1 -31 14 -10 39 -13 92 -9 39 2 72 3 72 1 0 -3 -152 -92 -260 -152 -91
-51 -110 -65 -110 -83 0 -10 3 -10 8 -3 4 6 44 30 90 53 165 83 332 189 332
211 0 4 -12 5 -27 4 -78 -8 -205 -11 -193 -4 8 4 57 17 108 30 50 12 92 24 92
26 0 8 -386 3 -398 -5z"/>
<path d="M1415 1270 c-3 -5 -1 -10 4 -10 6 0 11 5 11 10 0 6 -2 10 -4 10 -3 0
-8 -4 -11 -10z"/>
<path d="M2331 1266 c2 -2 15 -9 29 -15 24 -11 24 -11 6 3 -16 13 -49 24 -35
12z"/>
<path d="M840 1253 c25 -1 64 -6 88 -9 l43 -5 -72 -35 c-39 -19 -69 -37 -66
-40 3 -3 38 11 78 32 68 34 72 37 54 50 -13 10 -43 13 -94 12 -46 -1 -58 -3
-31 -5z"/>
<path d="M1319 1222 c-6 -18 -15 -32 -21 -32 -5 0 -6 -5 -2 -11 4 -8 14 2 26
25 11 21 17 40 14 44 -3 3 -11 -9 -17 -26z"/>
<path d="M863 1216 c0 -12 5 -13 21 -4 31 16 32 18 4 18 -15 0 -25 -6 -25 -14z"/>
<path d="M2110 1220 c0 -9 41 -39 98 -72 139 -80 143 -82 136 -63 -4 8 -11 15
-16 15 -5 0 -22 8 -36 19 -15 10 -58 35 -96 55 -38 19 -73 41 -78 48 -6 10 -8
9 -8 -2z"/>
<path d="M1090 1203 c0 -13 4 -23 9 -23 11 0 24 31 16 38 -3 3 -5 -1 -5 -9 0
-11 -2 -11 -10 1 -8 12 -10 11 -10 -7z"/>
<path d="M2205 1210 c3 -5 11 -10 16 -10 6 0 7 5 4 10 -3 6 -11 10 -16 10 -6
0 -7 -4 -4 -10z"/>
<path d="M950 1191 c-64 -22 -129 -50 -115 -51 6 0 42 11 80 25 39 13 93 25
120 25 37 1 45 4 30 10 -30 13 -54 11 -115 -9z"/>
<path d="M1372 1183 c-15 -16 -21 -22 -12 -15 25 19 35 14 16 -7 -21 -23 -15
-36 22 -55 62 -31 68 -30 64 15 -3 26 -7 37 -12 29 -5 -7 -6 -20 -2 -28 4 -12
1 -14 -14 -8 -10 5 -27 11 -36 13 -21 6 -23 24 -6 41 7 7 8 12 4 12 -5 0 -3 7
4 15 21 25 2 17 -28 -12z"/>
<path d="M1832 1194 c10 -10 20 -15 24 -12 3 4 -5 12 -18 18 -22 12 -22 12 -6
-6z"/>
<path d="M1130 1189 c0 -5 5 -7 10 -4 6 3 10 8 10 11 0 2 -4 4 -10 4 -5 0 -10
-5 -10 -11z"/>
<path d="M990 1170 l-35 -7 32 -2 c17 0 35 4 38 9 3 6 5 9 3 9 -2 -1 -19 -5
-38 -9z"/>
<path d="M2240 1171 c0 -10 34 -32 75 -49 24 -9 26 -9 11 1 -10 6 -34 22 -52
34 -19 12 -34 19 -34 14z"/>
<path d="M1037 1089 c-92 -91 -91 -105 0 -18 72 70 98 99 89 99 -5 0 -45 -37
-89 -81z"/>
<path d="M744 1124 c-18 -14 -18 -15 4 -4 12 6 22 13 22 15 0 8 -5 6 -26 -11z"/>
<path d="M1070 1079 l-55 -50 58 37 c31 20 57 43 57 50 0 8 -1 14 -2 14 -2 0
-28 -23 -58 -51z"/>
<path d="M2179 1110 c41 -11 78 -25 82 -31 4 -7 9 -7 12 -2 9 15 -61 44 -117
49 -49 4 -48 3 23 -16z"/>
<path d="M2106 1077 c-3 -17 -18 -54 -32 -81 -14 -26 -23 -50 -20 -53 8 -8 54
89 61 130 4 20 5 37 2 37 -3 0 -8 -15 -11 -33z"/>
<path d="M2165 1090 c11 -5 29 -8 40 -8 16 0 15 2 -5 8 -34 11 -60 11 -35 0z"/>
<path d="M768 1083 c7 -3 16 -2 19 1 4 3 -2 6 -13 5 -11 0 -14 -3 -6 -6z"/>
<path d="M903 1079 c9 -5 17 -20 17 -32 1 -20 1 -20 11 -4 12 21 -4 47 -30 47
-14 -1 -14 -2 2 -11z"/>
<path d="M1075 1050 c-33 -22 -56 -40 -52 -40 13 0 49 21 71 41 28 27 32 25
46 -26 7 -25 21 -57 31 -69 19 -24 19 -24 -8 -31 -21 -5 -24 -8 -12 -16 8 -5
9 -9 2 -9 -6 0 -37 -23 -68 -51 -30 -29 -58 -49 -61 -47 -2 3 21 29 53 58 32
29 48 48 35 41 -30 -16 -143 -132 -137 -141 2 -3 -32 -46 -76 -95 -44 -48 -77
-90 -74 -94 3 -3 62 51 131 121 68 69 124 123 124 118 0 -4 -31 -70 -70 -148
-66 -135 -89 -192 -76 -192 3 0 49 87 102 193 53 105 105 204 115 218 10 14
16 29 13 31 -2 3 4 8 15 11 14 3 22 -1 26 -13 3 -9 14 -25 24 -34 23 -21 17
-73 -10 -81 -29 -9 -286 -332 -274 -344 6 -6 38 28 104 109 20 25 41 50 47 55
6 6 22 26 35 45 13 19 29 41 36 48 7 7 13 17 13 22 0 4 6 10 13 13 10 4 7 -13
-9 -59 -40 -114 -7 -78 41 46 l47 119 -40 46 c-41 47 -80 119 -91 167 l-6 28
-60 -40z m-55 -258 c0 -4 -10 -13 -22 -21 -23 -14 -23 -14 -4 8 20 22 26 25
26 13z"/>
<path d="M671 1069 c-53 -16 -31 -19 29 -4 30 7 44 13 30 13 -14 0 -40 -4 -59
-9z"/>
<path d="M625 1020 c-196 -51 -196 -51 -193 -62 5 -15 -17 -19 248 47 147 37
180 40 180 18 0 -10 -66 -82 -150 -164 -82 -80 -150 -148 -150 -152 0 -16 131
98 228 197 78 81 103 112 100 129 -5 37 -86 34 -263 -13z"/>
<path d="M2272 1040 c7 -11 71 -68 141 -127 70 -58 126 -108 123 -110 -3 -3
-26 11 -53 32 -26 20 -93 58 -148 86 -55 27 -105 53 -112 59 -16 13 -44 13
-63 -1 -11 -8 -8 -9 15 -4 27 5 32 1 54 -37 32 -57 161 -224 205 -267 59 -58
40 -57 -25 1 -89 78 -177 146 -239 186 -30 20 -65 47 -77 61 -13 14 -23 22
-23 16 0 -8 221 -290 251 -319 6 -6 9 -4 9 5 0 9 -27 51 -59 95 -33 43 -57 81
-55 84 3 2 8 0 12 -5 4 -6 32 -30 62 -55 56 -45 73 -59 123 -105 15 -14 35
-25 43 -25 24 0 28 30 8 55 -91 116 -194 253 -194 258 0 11 191 -91 210 -112
5 -6 26 -13 49 -15 25 -2 23 22 -6 52 -15 15 -65 59 -110 96 -46 37 -83 69
-83 71 0 9 234 -56 241 -67 3 -6 8 -8 10 -6 2 1 30 -6 61 -16 54 -19 89 -16
58 5 -35 22 -391 129 -433 129 -4 0 -2 -9 5 -20z"/>
<path d="M962 983 c-24 -14 -41 -28 -38 -30 4 -4 86 46 86 53 0 6 -2 5 -48
-23z"/>
<path d="M1080 1000 c-8 -5 -15 -17 -15 -26 0 -10 -17 -23 -47 -35 -50 -20
-276 -139 -371 -196 -73 -44 -65 -62 11 -21 60 32 210 112 300 160 28 15 52
25 52 23 0 -3 -47 -71 -105 -152 -58 -81 -105 -155 -105 -166 0 -27 260 331
288 396 13 30 13 30 -8 17z"/>
<path d="M1028 963 c7 -3 16 -2 19 1 4 3 -2 6 -13 5 -11 0 -14 -3 -6 -6z"/>
<path d="M2187 944 c2 -12 18 -37 34 -55 l29 -34 -22 36 c-13 20 -28 45 -35
55 -11 18 -11 18 -6 -2z"/>
<path d="M895 919 c-33 -16 -71 -39 -85 -50 -14 -10 16 2 65 27 99 52 103 54
89 54 -5 0 -36 -14 -69 -31z"/>
<path d="M2004 899 c-20 -23 -119 -92 -144 -101 -21 -8 -41 -74 -31 -101 6
-16 9 -10 15 31 6 50 9 53 54 76 27 14 62 37 79 53 l31 29 38 -32 c20 -18 39
-39 40 -47 2 -15 302 -467 310 -467 13 0 0 34 -35 86 -171 259 -171 258 -101
198 14 -11 34 -24 45 -28 27 -10 -39 58 -138 141 -43 36 -75 68 -72 71 3 3 19
-7 35 -23 16 -16 32 -26 35 -23 3 3 -28 36 -69 73 -42 37 -73 72 -70 76 10 16
-3 9 -22 -12z"/>
<path d="M2165 888 c11 -6 32 -20 48 -30 15 -11 27 -17 27 -14 0 8 -73 56 -85
56 -5 0 -1 -6 10 -12z"/>
<path d="M1547 825 c3 -8 9 -12 14 -9 12 7 11 11 -5 17 -10 4 -13 1 -9 -8z"/>
<path d="M1577 799 c-15 -25 -27 -53 -27 -61 0 -28 -56 -78 -87 -79 -24 0 -25
-2 -8 -8 23 -10 74 15 83 39 3 8 8 17 12 20 3 3 14 26 24 53 10 26 22 45 26
42 5 -3 11 -1 15 5 19 31 38 -7 24 -49 -11 -31 -33 -45 -52 -35 -9 5 -9 4 -1
-6 26 -27 74 18 74 69 0 22 -25 45 -39 37 -5 -3 -11 -1 -13 6 -3 7 -17 -8 -31
-33z"/>
<path d="M2250 837 c0 -2 15 -16 33 -33 l32 -29 -29 33 c-28 30 -36 37 -36 29z"/>
<path d="M1144 778 l-19 -21 28 18 c28 18 33 25 19 25 -5 0 -17 -10 -28 -22z"/>
<path d="M1105 759 c-4 -6 -5 -12 -2 -15 2 -3 7 2 10 11 7 17 1 20 -8 4z"/>
<path d="M1076 701 c-23 -43 -19 -52 5 -13 12 18 19 35 16 38 -3 3 -13 -8 -21
-25z"/>
<path d="M1993 693 c7 -44 75 -189 84 -180 3 4 -6 39 -21 78 -16 38 -26 73
-22 76 9 9 92 -73 239 -236 79 -88 118 -121 98 -83 -30 57 -347 382 -372 382
-8 0 -10 -12 -6 -37z"/>
<path d="M1863 704 c-12 -33 8 -133 63 -307 31 -100 61 -186 66 -192 17 -16 1
52 -51 228 -27 89 -52 184 -56 211 -6 48 -6 49 12 35 10 -7 24 -22 31 -31 7
-9 18 -23 25 -30 7 -7 23 -29 35 -49 23 -39 59 -75 67 -68 7 8 -78 130 -124
177 -44 45 -58 51 -68 26z"/>
<path d="M1804 663 c-8 -24 -6 -32 15 -53 l24 -25 -16 31 c-9 17 -13 41 -10
52 8 31 -1 27 -13 -5z"/>
</g>
</svg>
